# xmcd
#
# Track frame offsets:
#	150
#	14369
#	37087
#	62419
#	81789
#	108202
#	134259
#	165004
#	194392
#	224541
#
# Disc length: 3350 seconds
#
# Revision: 1
# Processed by: cddbd v1.5.1PL0 Copyright (c) Steve Scherf et al.
# Submitted via: CDex 1.50Beta5
#
DISCID=7d0d140a
DTITLE=さまざまなアーティスト - transonic
DYEAR=1900
DGENRE=Dnace
TTITLE0=taiji takahashi/get lost!
TTITLE1=fantastic explosion/vhs communication
TTITLE2=idol taxi/instant funk
TTITLE3=take rodriguez/bahamas
TTITLE4=inoyamaland/ino-yama-ino '81
TTITLE5=tagomago/i do, you do
TTITLE6=artwank/830
TTITLE7=tigris and euphrates/sumerians
TTITLE8=arm/armedandgo!
TTITLE9=animo computer/gil and lig
EXTD=
EXTT0=
EXTT1=
EXTT2=
EXTT3=
EXTT4=
EXTT5=
EXTT6=
EXTT7=
EXTT8=
EXTT9=
PLAYORDER=
